<?xml version="1.0" encoding="UTF-8"?>
<!DOCTYPE svg PUBLIC "-//W3C//DTD SVG 1.1//EN" "http://www.w3.org/Graphics/SVG/1.1/DTD/svg11.dtd">
<!-- Creator: CorelDRAW X7 -->
<svg xmlns="http://www.w3.org/2000/svg" xml:space="preserve" width="2000px" height="350px" version="1.1" style="shape-rendering:geometricPrecision; text-rendering:geometricPrecision; image-rendering:optimizeQuality; fill-rule:evenodd; clip-rule:evenodd"
viewBox="0 0 2000 350"
 xmlns:xlink="http://www.w3.org/1999/xlink">
 <defs>
  <style type="text/css">
   <![CDATA[
    .fil0 {fill:#2B2A29}
   ]]>
  </style>
 </defs>
 <g id="Слой_x0020_1">
  <metadata id="CorelCorpID_0Corel-Layer"/>
  <path class="fil0" d="M0 0l2000 0 0 350 -2000 0 0 -350zm110 42l62 188 61 -188 64 0 -100 266 -51 0 -100 -266 64 0zm395 212l0 54 -184 0 0 -266 181 0 0 54 -121 0 0 51 104 0 0 50 -104 0 0 57 124 0zm37 54l0 -266 118 0c12,0 24,2 34,8 11,5 20,12 27,20 8,9 14,18 18,29 4,11 7,22 7,33 0,8 -1,16 -3,23 -2,8 -5,15 -9,22 -4,7 -8,13 -13,18 -6,5 -12,10 -18,14l57 99 -68 0 -50 -86 -40 0 0 86 -60 0zm60 -140l56 0c7,0 13,-3 18,-10 5,-7 8,-16 8,-26 0,-11 -3,-20 -9,-27 -6,-6 -12,-9 -19,-9l-54 0 0 72zm371 86l0 54 -184 0 0 -266 181 0 0 54 -120 0 0 51 103 0 0 50 -103 0 0 57 123 0zm189 -134c-1,-1 -4,-3 -8,-6 -4,-3 -10,-6 -17,-9 -6,-3 -13,-5 -21,-7 -8,-3 -16,-4 -24,-4 -22,0 -32,8 -32,22 0,5 1,8 3,11 2,3 6,6 10,9 5,2 11,4 18,6 6,2 14,4 24,7 12,3 23,7 34,11 10,4 18,9 25,16 7,6 13,13 16,22 4,9 6,19 6,31 0,15 -3,28 -8,38 -6,11 -13,19 -22,25 -9,7 -20,11 -32,14 -11,3 -23,5 -36,5 -10,0 -19,-1 -30,-3 -10,-1 -19,-3 -29,-6 -10,-3 -19,-7 -28,-11 -9,-4 -17,-8 -25,-13l27 -54c1,1 4,4 9,7 6,4 12,7 20,11 8,3 17,6 27,9 10,3 20,4 30,4 21,0 32,-7 32,-20 0,-5 -1,-9 -5,-12 -3,-3 -7,-6 -13,-9 -6,-3 -12,-5 -20,-7 -8,-2 -16,-5 -25,-8 -12,-3 -23,-7 -32,-12 -9,-4 -16,-9 -22,-15 -5,-6 -10,-12 -13,-20 -2,-7 -4,-16 -4,-26 0,-14 3,-26 8,-37 5,-11 12,-20 21,-27 9,-8 19,-13 31,-17 12,-4 24,-6 37,-6 9,0 18,1 27,3 9,2 17,4 25,7 8,3 16,6 23,9 7,4 13,7 19,11l-26 51zm70 188l0 -266 111 0c13,0 24,2 35,8 10,5 19,12 27,20 7,9 13,18 17,29 5,11 7,22 7,33 0,11 -2,23 -6,33 -4,11 -10,21 -17,29 -7,9 -16,15 -27,20 -10,5 -21,8 -34,8l-53 0 0 86 -60 0zm60 -140l49 0c8,0 14,-3 19,-9 5,-6 8,-15 8,-27 0,-7 -1,-12 -3,-17 -1,-4 -3,-8 -6,-11 -3,-3 -6,-5 -9,-6 -4,-2 -7,-2 -11,-2l-47 0 0 72zm169 140l0 -266 118 0c13,0 24,2 35,8 10,5 19,12 27,20 7,9 13,18 18,29 4,11 6,22 6,33 0,8 -1,16 -3,23 -2,8 -5,15 -8,22 -4,7 -9,13 -14,18 -5,5 -11,10 -18,14l58 99 -68 0 -51 -86 -39 0 0 86 -61 0zm61 -140l55 0c7,0 14,-3 19,-10 5,-7 7,-16 7,-26 0,-11 -3,-20 -8,-27 -6,-6 -13,-9 -20,-9l-53 0 0 72zm301 142c-19,0 -37,-4 -53,-12 -16,-8 -29,-18 -41,-30 -11,-13 -20,-27 -26,-44 -6,-16 -10,-33 -10,-50 0,-17 4,-34 10,-50 7,-17 16,-31 28,-43 11,-13 25,-22 41,-30 16,-7 33,-11 52,-11 20,0 38,4 54,12 16,8 29,18 41,31 11,12 20,27 26,43 6,16 9,33 9,49 0,18 -3,35 -10,51 -6,16 -15,30 -27,43 -12,12 -25,22 -41,30 -16,7 -34,11 -53,11zm-68 -135c0,10 2,20 4,30 3,9 8,18 14,25 5,8 13,14 21,18 9,5 19,7 30,7 11,0 21,-2 30,-7 9,-5 16,-11 21,-19 6,-7 10,-16 13,-25 3,-10 4,-20 4,-30 0,-10 -1,-20 -4,-30 -3,-9 -7,-18 -13,-25 -6,-7 -13,-13 -22,-18 -8,-4 -18,-6 -29,-6 -12,0 -22,2 -30,7 -9,4 -16,10 -22,18 -6,7 -10,16 -13,26 -3,9 -4,19 -4,29z"/>
 </g>
</svg>
